<?xml version="1.0"?>
<svg xmlns="http://www.w3.org/2000/svg" viewBox="0 0 64 64" width="512" height="512"><g id="outline"><path d="M35,49a3,3,0,0,0-2.816,2H29.816a2.982,2.982,0,0,0-5.632,0H21.816a2.982,2.982,0,0,0-5.632,0H14v2h2.184a2.982,2.982,0,0,0,5.632,0h2.368a2.982,2.982,0,0,0,5.632,0h2.368a2.982,2.982,0,0,0,5.632,0H41V51H37.816A3,3,0,0,0,35,49ZM19,53a1,1,0,1,1,1-1A1,1,0,0,1,19,53Zm8,0a1,1,0,1,1,1-1A1,1,0,0,1,27,53Zm8,0a1,1,0,1,1,1-1A1,1,0,0,1,35,53Z"/><rect x="21" y="56" width="2" height="2"/><rect x="29" y="56" width="2" height="2"/><path d="M54,25V17a1,1,0,0,0-1-1,2.9,2.9,0,0,1-1.554-.395,5.255,5.255,0,0,0-4.9,0A2.9,2.9,0,0,1,45,16a1,1,0,0,0-1,1v5a1,1,0,0,0,1,1h0a4.868,4.868,0,0,0,2.443-.605,3.256,3.256,0,0,1,3.109,0,5.2,5.2,0,0,0,1.448.51V25H43v2h2.329A11.838,11.838,0,0,1,46,31a11.314,11.314,0,0,1-.9,4.553A1,1,0,0,0,46,37h6v5.2l-5.99.807a1,1,0,0,0-.828.716L44.817,45H31V43h7a1,1,0,0,0,.97-.757A41.932,41.932,0,0,0,40,33a32.59,32.59,0,0,0-.706-7H41V24H31V22h6a1,1,0,0,0,.707-.293C37.923,21.491,39,20.25,39,17a10.129,10.129,0,0,0-.4-3H40V12H31V4a1,1,0,0,0-1-1,2.9,2.9,0,0,1-1.554-.395,5.257,5.257,0,0,0-4.9,0A2.9,2.9,0,0,1,22,3a2.9,2.9,0,0,1-1.55-.394A4.855,4.855,0,0,0,18,2a1,1,0,0,0-1,1V8a1,1,0,0,0,1,1,2.9,2.9,0,0,1,1.55.394,5.245,5.245,0,0,0,4.893,0,3.256,3.256,0,0,1,3.109,0A5.2,5.2,0,0,0,29,9.9V12H20v2h2.457A6.721,6.721,0,0,1,23,17a5.554,5.554,0,0,1-.708,3.293h0A1,1,0,0,0,23,22h6v2H19v2h1.237A29.8,29.8,0,0,1,21,33a40.662,40.662,0,0,1-.97,8.758A1,1,0,0,0,21,43h8v2H12V38h5a1,1,0,0,0,.895-.553A13.128,13.128,0,0,0,19,32,13.128,13.128,0,0,0,17.9,26.553,1,1,0,0,0,17,26H12V23h1a1,1,0,0,0,.97-.757l1-4A1,1,0,0,0,14,17H12V9a1,1,0,0,0-1-1,2.9,2.9,0,0,1-1.554-.395A4.873,4.873,0,0,0,7,7a4.862,4.862,0,0,0-2.448.605A2.9,2.9,0,0,1,3,8,1,1,0,0,0,2,9v5a1,1,0,0,0,1,1H3A4.868,4.868,0,0,0,5.443,14.4,2.907,2.907,0,0,1,7,14a2.9,2.9,0,0,1,1.554.395,5.2,5.2,0,0,0,1.448.51V17H8a1,1,0,0,0-.97,1.243l1,4A1,1,0,0,0,9,23h1v3H4a1,1,0,0,0-.895,1.447A11.113,11.113,0,0,1,4,32a11.314,11.314,0,0,1-.895,4.553A1,1,0,0,0,4,38h6v5H4a1,1,0,0,0-.97.757l-1,4A1,1,0,0,0,2,48a4.007,4.007,0,0,0,3.035,3.882A11.014,11.014,0,0,0,16,62H41a8.648,8.648,0,0,0,7.958-6.7l1.821-4.554L61.414,45.91A1,1,0,0,0,62,45V42a1,1,0,0,0-1.133-.991L54,41.933V37h5a1,1,0,0,0,.9-.553A13.128,13.128,0,0,0,61,31a14.142,14.142,0,0,0-.571-4H62V25Zm-2.554-4.395a5.255,5.255,0,0,0-4.9,0,4.713,4.713,0,0,1-.55.247V17.914a5.045,5.045,0,0,0,1.443-.519,3.256,3.256,0,0,1,3.109,0,5.04,5.04,0,0,0,1.448.52v2.939A4.709,4.709,0,0,1,51.446,20.605Zm-23-13a5.257,5.257,0,0,0-4.9,0,3.248,3.248,0,0,1-3.1,0A5,5,0,0,0,19,7.085V4.147a4.639,4.639,0,0,1,.55.247,5.245,5.245,0,0,0,4.893,0,3.256,3.256,0,0,1,3.109,0A5.04,5.04,0,0,0,29,4.915V7.854A4.709,4.709,0,0,1,28.446,7.605ZM24.606,20A10.186,10.186,0,0,0,25,17a10.186,10.186,0,0,0-.394-3H36.46A6.809,6.809,0,0,1,37,17a6.809,6.809,0,0,1-.54,3Zm-2.37,21A43.518,43.518,0,0,0,23,33a32.606,32.606,0,0,0-.706-7H37.238A29.9,29.9,0,0,1,38,33a41.769,41.769,0,0,1-.8,8ZM9.446,12.605A4.873,4.873,0,0,0,7,12a4.862,4.862,0,0,0-2.448.605,4.713,4.713,0,0,1-.55.247V9.914A5.045,5.045,0,0,0,5.443,9.4,2.907,2.907,0,0,1,7,9,2.9,2.9,0,0,1,8.552,9.4,5.04,5.04,0,0,0,10,9.915v2.939A4.709,4.709,0,0,1,9.446,12.605ZM9.781,21l-.5-2h3.438l-.5,2ZM5.432,36A14.265,14.265,0,0,0,6,32a14.265,14.265,0,0,0-.568-4h10.9A11.953,11.953,0,0,1,17,32a12.069,12.069,0,0,1-.671,4ZM60,43.144v1.212L49.692,49.042,44.8,50.02l.392,1.96,3.19-.637S46.975,54.927,46.955,55H41v2h5.054A6.377,6.377,0,0,1,41,60H16a8.971,8.971,0,0,1-6.689-3H13V55H7.95a8.912,8.912,0,0,1-.891-3H10V50H6a2,2,0,0,1-2-1.889L4.781,45H10v1a1,1,0,0,0,1,1H45.571a1,1,0,0,0,.962-.725l.392-1.371ZM58.329,35h-10.9a14.369,14.369,0,0,0,0-8h10.9a12.275,12.275,0,0,1,0,8Z"/><rect x="28" y="16" width="2" height="2"/><rect x="32" y="16" width="2" height="2"/><path d="M35,32c0-2.206-2.243-4-5-4s-5,1.794-5,4a4.538,4.538,0,0,0,1.8,3.442l-.747,2.242A1,1,0,0,0,27,39h6a1,1,0,0,0,.949-1.316L33.2,35.442A4.538,4.538,0,0,0,35,32Zm-3.4,2.083a1,1,0,0,0-.549,1.233L31.613,37H28.387l.562-1.684a1,1,0,0,0-.549-1.233A2.563,2.563,0,0,1,27,32c0-1.084,1.374-2,3-2s3,.916,3,2A2.563,2.563,0,0,1,31.6,34.083Z"/></g></svg>
