<?xml version="1.0" encoding="iso-8859-1"?>
<!-- Generator: Adobe Illustrator 19.0.0, SVG Export Plug-In . SVG Version: 6.00 Build 0)  -->
<svg version="1.1" id="Capa_1" xmlns="http://www.w3.org/2000/svg" xmlns:xlink="http://www.w3.org/1999/xlink" x="0px" y="0px"
	 viewBox="0 0 512 512" style="enable-background:new 0 0 512 512;" xml:space="preserve">
<g>
	<g>
		<circle cx="256" cy="99.72" r="9.383"/>
	</g>
</g>
<g>
	<g>
		<circle cx="366.51" cy="145.49" r="9.383"/>
	</g>
</g>
<g>
	<g>
		<circle cx="412.28" cy="256" r="9.384"/>
	</g>
</g>
<g>
	<g>
		<circle cx="366.51" cy="366.51" r="9.383"/>
	</g>
</g>
<g>
	<g>
		<circle cx="256" cy="412.28" r="9.383"/>
	</g>
</g>
<g>
	<g>
		<circle cx="145.49" cy="366.51" r="9.383"/>
	</g>
</g>
<g>
	<g>
		<circle cx="99.72" cy="256" r="9.383"/>
	</g>
</g>
<g>
	<g>
		<circle cx="145.49" cy="145.49" r="9.383"/>
	</g>
</g>
<g>
	<g>
		<path d="M205.978,241.557c-4.142,0-7.5,3.358-7.5,7.5v9.053c0,4.142,3.358,7.5,7.5,7.5c4.142,0,7.5-3.358,7.5-7.5v-9.053
			C213.478,244.915,210.12,241.557,205.978,241.557z"/>
	</g>
</g>
<g>
	<g>
		<path d="M306.022,241.558c-4.142,0-7.5,3.358-7.5,7.5v9.053c0,4.142,3.358,7.5,7.5,7.5c4.142,0,7.5-3.358,7.5-7.5v-9.053
			C313.522,244.916,310.164,241.558,306.022,241.558z"/>
	</g>
</g>
<g>
	<g>
		<path d="M273.282,251.834c-3.119-2.726-7.857-2.408-10.583,0.711c-1.61,1.842-4.052,2.898-6.699,2.898
			c-2.647,0-5.089-1.056-6.699-2.898c-2.726-3.119-7.464-3.437-10.583-0.711c-3.119,2.726-3.437,7.464-0.711,10.583
			c4.459,5.101,11.017,8.026,17.993,8.026s13.534-2.926,17.993-8.026C276.719,259.298,276.401,254.56,273.282,251.834z"/>
	</g>
</g>
<g>
	<g>
		<path d="M478.101,222.056c-1.13,0-2.277,0.057-3.408,0.17l-30.704,3.06c-4.829-29.658-16.525-57.036-33.406-80.445l23.938-19.599
			c15.305-12.53,16.481-36.279,2.499-50.262c-14.006-14.007-37.729-12.811-50.262,2.498l-19.599,23.938
			c-23.409-16.881-50.788-28.577-80.445-33.406c0,0,3.059-30.696,3.06-30.704C291.736,17.618,275.767,0,256,0
			c-19.773,0-35.734,17.644-33.774,37.308l3.06,30.701c-9.741,1.589-19.348,3.933-28.752,7.031c-3.935,1.296-6.073,5.536-4.777,9.47
			c1.296,3.934,5.536,6.072,9.47,4.777c55.038-18.125,116.882-7.306,162.53,28.315c0.014,0.011,0.026,0.024,0.04,0.035
			c2.814,2.197,5.559,4.481,8.233,6.843c0.072,0.064,0.144,0.128,0.216,0.191c5.326,4.721,10.366,9.76,15.085,15.085
			c0.063,0.072,0.127,0.144,0.191,0.215c2.362,2.674,4.646,5.419,6.842,8.232c0.011,0.014,0.025,0.027,0.036,0.042
			c19.044,24.406,31.783,53.957,35.751,86.186c1.692,13.741,1.725,27.648,0.187,41.404c-2.948,25.968-11.646,50.966-25.625,73.218
			c-16.935,26.96-41.234,49.171-69.637,63.566c-3.694,1.873-5.171,6.386-3.298,10.081c1.833,3.615,6.472,5.127,10.081,3.298
			c8.851-4.488,17.292-9.665,25.29-15.427c0,0,19.603,23.943,19.608,23.95c12.528,15.302,36.279,16.482,50.262,2.498
			c13.987-13.986,12.788-37.747-2.498-50.261l-23.939-19.599c2.377-3.298,4.663-6.67,6.834-10.126
			c13.524-21.53,22.508-45.423,26.571-70.319l30.707,3.061c1.13,0.113,2.276,0.17,3.411,0.17c8.996,0,17.479-3.507,23.887-9.874
			C508.445,273.656,512,265.108,512,256C512,237.283,496.793,222.056,478.101,222.056z M274.848,35.819l-3.026,30.361
			c-0.077-0.006-0.155-0.01-0.233-0.017c-10.445-0.853-20.967-0.845-31.411,0.018c0,0-3.023-30.335-3.026-30.361
			C236.056,24.817,244.964,15,256,15C267.052,15,275.943,24.828,274.848,35.819z M400.754,132.341
			c-6.656-7.792-13.952-15.062-21.774-21.684c0,0,19.371-23.66,19.383-23.675c7.003-8.554,20.243-9.2,28.049-1.394
			c7.806,7.806,7.122,21.078-1.395,28.05l-23.675,19.383C401.148,132.792,400.948,132.569,400.754,132.341z M425.019,398.364
			c8.554,7.003,9.204,20.239,1.394,28.049c-7.814,7.814-21.055,7.148-28.049-1.394l-19.383-23.676
			c0.022-0.019,0.044-0.039,0.067-0.058c8.025-6.803,15.494-14.279,22.296-22.305C401.344,378.98,425.005,398.351,425.019,398.364z
			 M476.18,274.848l-30.361-3.026c0.013-0.161,0.022-0.323,0.035-0.485c0.41-5.101,0.623-10.22,0.623-15.337
			c0-5.195-0.213-10.397-0.64-15.574c-0.006-0.083-0.011-0.165-0.018-0.248l30.361-3.026C487.174,236.056,497,244.949,497,256
			C497,266.899,487.007,275.929,476.18,274.848z"/>
	</g>
</g>
<g>
	<g>
		<path d="M368.143,177.244c-39.638-56.276-117.232-74.505-177.751-41.565c-6.963,3.79-13.552,8.202-19.704,13.146
			c-36.374,29.223-56.094,76.16-50.907,122.576c7.227,64.665,58.21,110.404,120.831,120.82c34.871,5.8,73.573-7.348,100.745-29.029
			c0.012-0.009,0.025-0.015,0.037-0.025c25.402-20.638,43.444-50.023,49.439-82.436C397.47,244.846,389.143,207.059,368.143,177.244
			z M356.473,186.725c9.632,13.926,16.448,29.939,19.614,47.215h-38.854c-1.9-6.989-4.682-13.614-8.216-19.759L356.473,186.725z
			 M347.13,174.855l-26.816,26.816c-3.044-3.606-6.379-6.941-9.985-9.985l26.816-26.816
			C340.66,168.004,343.997,171.34,347.13,174.855z M278.06,135.913c17.275,3.166,33.289,9.982,47.214,19.614l-27.455,27.456
			c-6.145-3.533-12.77-6.315-19.759-8.216V135.913z M248.94,134.12c0.025-0.001,0.05-0.003,0.075-0.004
			c4.655-0.27,9.316-0.272,13.971,0c0.025,0.001,0.05,0.003,0.075,0.004v37.995c-0.474-0.04-0.948-0.059-1.422-0.091
			c-4.231-0.285-8.472-0.269-12.699,0.091V134.12z M233.939,135.913v38.854c-6.989,1.9-13.614,4.682-19.758,8.216l-27.456-27.456
			C200.651,145.895,216.664,139.079,233.939,135.913z M174.855,164.87l26.816,26.816c-3.606,3.044-6.941,6.379-9.985,9.985
			l-26.816-26.816C168.004,171.34,171.341,168.004,174.855,164.87z M155.527,186.725l27.456,27.456
			c-3.533,6.145-6.315,12.77-8.216,19.759h-38.854C139.079,216.664,145.895,200.651,155.527,186.725z M134.114,262.975
			c-0.198-3.462-0.253-6.934-0.154-10.398c0.034-1.186,0.085-2.375,0.154-3.55c0.002-0.029,0.004-0.058,0.006-0.087h37.994
			c-0.041,0.478-0.059,0.956-0.091,1.434c-0.284,4.208-0.265,8.484,0.091,12.688H134.12
			C134.118,263.033,134.116,263.004,134.114,262.975z M155.527,325.276c-9.632-13.927-16.448-29.94-19.614-47.215h38.854
			c1.9,6.989,4.683,13.614,8.216,19.759L155.527,325.276z M164.87,337.145l26.816-26.816c3.044,3.607,6.378,6.941,9.985,9.985
			l-26.816,26.816C171.34,343.996,168.003,340.659,164.87,337.145z M233.94,376.088c-17.275-3.166-33.288-9.982-47.214-19.614
			l27.455-27.456c6.145,3.533,12.77,6.315,19.759,8.216V376.088z M263.06,377.879c-0.029,0.003-0.058,0.005-0.087,0.006
			c-4.594,0.264-9.215,0.308-13.809,0.009c-0.046-0.003-0.092-0.006-0.138-0.009c-0.029-0.002-0.058-0.004-0.087-0.006v-37.995
			c0.472,0.04,0.943,0.058,1.415,0.09c4.223,0.286,8.488,0.268,12.706-0.09V377.879z M243.31,323.999
			c-27.987-5.212-50.092-27.315-55.307-55.301c-1.556-8.374-1.56-17.022,0-25.396c5.215-27.985,27.32-50.088,55.307-55.301
			c8.374-1.553,17.007-1.559,25.38,0c27.987,5.212,50.092,27.315,55.307,55.301c1.558,8.384,1.569,17.014,0,25.396
			c-5.215,27.986-27.321,50.089-55.307,55.301C260.319,325.551,251.681,325.559,243.31,323.999z M278.061,376.087v-38.854
			c6.989-1.9,13.614-4.682,19.759-8.216l27.456,27.456C311.35,366.105,295.337,372.921,278.061,376.087z M337.145,347.13
			l-26.816-26.816c3.606-3.044,6.941-6.379,9.985-9.985l26.816,26.816C343.996,340.66,340.66,343.996,337.145,347.13z
			 M356.473,325.275l-27.456-27.456c3.533-6.145,6.315-12.77,8.216-19.759h38.854C372.921,295.336,366.105,311.349,356.473,325.275z
			 M378.039,259.424c-0.034,1.184-0.086,2.367-0.154,3.55c-0.002,0.029-0.004,0.058-0.006,0.087h-37.994
			c0.041-0.478,0.059-0.956,0.091-1.433c0.287-4.229,0.267-8.463-0.091-12.688h37.994c0.002,0.029,0.004,0.058,0.006,0.087
			C378.083,252.423,378.139,255.968,378.039,259.424z"/>
	</g>
</g>
<g>
	<g>
		<path d="M318.251,428.232c-1.25-3.949-5.465-6.138-9.413-4.888c-10.256,3.245-20.773,5.521-31.443,6.826
			c-14.236,1.741-28.729,1.75-42.964-0.019c-32.229-3.968-61.78-16.707-86.186-35.752c-0.014-0.011-0.026-0.024-0.04-0.034
			c-11.278-8.706-21.715-19.231-30.568-30.568c-0.011-0.014-0.023-0.026-0.034-0.04c-19.046-24.406-31.785-53.958-35.753-86.189
			c-1.708-13.873-1.753-27.937-0.142-41.821c3.69-31.998,16.042-61.909,35.305-86.85c0.22-0.219,0.431-0.447,0.624-0.694
			c8.893-11.388,19.177-21.673,30.568-30.568c0.122-0.095,0.234-0.2,0.349-0.302c8.209-6.35,17.044-12.046,26.466-16.97
			c3.671-1.918,5.092-6.449,3.174-10.12c-1.919-3.67-6.45-5.092-10.121-3.173c-8.161,4.264-15.919,9.06-23.25,14.324l-19.58-23.915
			c-6.473-7.906-16.049-12.44-26.272-12.44c-9.059,0-17.579,3.531-23.989,9.942c-6.767,6.766-10.375,16.128-9.899,25.686
			s4.994,18.515,12.397,24.576l23.864,19.538c-17.068,23.685-28.579,51.174-33.342,80.505l-30.694-3.059
			C17.619,220.267,0,236.207,0,256c0,19.619,17.794,35.716,37.307,33.774l30.704-3.06c4.829,29.658,16.525,57.036,33.406,80.445
			l-23.938,19.598c-7.404,6.062-11.923,15.02-12.398,24.577c-0.475,9.557,3.133,18.919,9.899,25.685
			c6.41,6.411,14.93,9.941,23.991,9.941c10.223,0,19.798-4.534,26.271-12.439l19.599-23.938
			c23.409,16.881,50.788,28.577,80.445,33.406c0,0-3.059,30.696-3.06,30.703C220.266,494.368,236.243,512,256,512
			c19.758,0,35.733-17.647,33.774-37.307l-3.061-30.704c9.019-1.47,17.921-3.582,26.65-6.344
			C317.312,436.395,319.501,432.181,318.251,428.232z M86.981,113.636c-4.192-3.432-6.649-8.303-6.918-13.714
			c-0.269-5.412,1.693-10.503,5.524-14.334c3.578-3.578,8.331-5.548,13.383-5.548c5.708,0,11.054,2.531,14.666,6.942l19.35,23.634
			c-8.119,6.855-15.602,14.336-22.398,22.349L86.981,113.636z M35.82,274.848C24.829,275.944,15,267.053,15,256.001
			c0-10.978,9.917-19.936,20.82-18.848l30.358,3.026c-0.581-0.04-0.285,28.135-0.015,31.396c0.006,0.082,0.011,0.165,0.018,0.247
			L35.82,274.848z M113.636,425.019c-6.999,8.548-20.244,9.198-28.049,1.395c-7.823-7.822-7.15-21.054,1.394-28.049l23.675-19.383
			c0.198,0.233,0.402,0.461,0.601,0.694c6.661,7.779,13.948,15.045,21.763,21.668C133.02,401.344,113.645,425.008,113.636,425.019z
			 M256,497c-11.056,0-19.943-9.827-18.848-20.82l3.026-30.361c0.082,0.007,0.165,0.011,0.247,0.018
			c10.373,0.862,20.836,0.849,31.21-0.004c0.062-0.005,0.124-0.009,0.187-0.014c0,0,3.025,30.343,3.026,30.361
			C275.945,487.183,267.036,497,256,497z"/>
	</g>
</g>
<g>
</g>
<g>
</g>
<g>
</g>
<g>
</g>
<g>
</g>
<g>
</g>
<g>
</g>
<g>
</g>
<g>
</g>
<g>
</g>
<g>
</g>
<g>
</g>
<g>
</g>
<g>
</g>
<g>
</g>
</svg>
