<?xml version="1.0" encoding="iso-8859-1"?>
<!-- Generator: Adobe Illustrator 19.0.0, SVG Export Plug-In . SVG Version: 6.00 Build 0)  -->
<svg version="1.1" id="Capa_1" xmlns="http://www.w3.org/2000/svg" xmlns:xlink="http://www.w3.org/1999/xlink" x="0px" y="0px"
	 viewBox="0 0 512 512" style="enable-background:new 0 0 512 512;" xml:space="preserve">
<g>
	<g>
		<path d="M180.999,301c-18.311,0-30,8.877-30,15c0,12.041,17.007,45,30,45s30-32.959,30-45C210.999,309.877,199.31,301,180.999,301
			z"/>
	</g>
</g>
<g>
	<g>
		<path d="M73.382,241c-7.935,25.935-12.383,51.449-12.383,75c0,35.306,9.824,63.662,28.843,85.118l44.784-44.524
			c-8.59-14.813-13.627-30.873-13.627-40.594c0-25.239,26.353-45,60-45c12.22,0,23.425,2.668,32.807,7.196L251.394,241H73.382z"/>
	</g>
</g>
<g>
	<g>
		<path d="M307.942,0.096c-5.786-0.63-11.118,2.007-14.18,6.738c-16.67,25.693-58.857,25.693-75.527,0
			c-3.076-4.731-8.555-7.383-14.18-6.738C84.495,12.84,0.999,67.229,0.999,132.356c0,3.984,1.582,7.793,4.395,10.605L69.788,211
			H442.21l64.395-68.038c2.813-2.813,4.395-6.621,4.395-10.605C510.999,67.229,427.503,12.84,307.942,0.096z M296.604,121.751
			c5.859,5.859,5.859,15.352,0,21.211s-15.352,5.859-21.211,0l-19.394-19.395l-19.395,19.395c-5.859,5.859-15.352,5.859-21.211,0
			c-5.859-5.859-5.859-15.352,0-21.211l19.395-19.395l-19.395-19.395c-5.859-5.859-5.859-15.352,0-21.211
			c5.859-5.859,15.352-5.859,21.211,0l19.395,19.396l19.395-19.395c5.859-5.859,15.352-5.859,21.211,0
			c5.859,5.859,5.859,15.352,0,21.211l-19.395,19.395L296.604,121.751z"/>
	</g>
</g>
<g>
	<g>
		<path d="M330.999,301c-18.311,0-30,8.877-30,15c0,12.041,17.007,45,30,45c12.993,0,30-32.959,30-45
			C360.999,309.877,349.31,301,330.999,301z"/>
	</g>
</g>
<g>
	<g>
		<path d="M438.616,241H294.039l-57.783,57.182c3.049,5.44,4.743,11.451,4.743,17.818c0,21.636-23.906,75-60,75
			c-10.195,0-19.276-4.506-27.263-11.104l-41.027,40.787c2.73,1.776,5.345,3.642,8.289,5.253V466c0.001,24.814,20.187,46,45.001,46
			h15v-46c0-8.286,6.716-15,15-15s15,6.714,15,15v46h30v-46c0-8.286,6.716-15,15-15s15,6.714,15,15v46h30v-46
			c0-8.286,6.716-15,15-15s15,6.714,15,15v46h15c24.814,0,45-21.186,45-46v-40.063c39.829-21.797,60-58.74,60-109.937
			C450.999,292.449,446.551,266.935,438.616,241z M255.999,421c-8.284,0-15-6.716-15-15c0-8.286,6.716-15,15-15s15,6.714,15,15
			C270.999,414.284,264.283,421,255.999,421z M330.999,391c-36.094,0-60-53.364-60-75c0-25.239,26.353-45,60-45
			c33.647,0,60,19.761,60,45C390.999,337.636,367.093,391,330.999,391z"/>
	</g>
</g>
<g>
</g>
<g>
</g>
<g>
</g>
<g>
</g>
<g>
</g>
<g>
</g>
<g>
</g>
<g>
</g>
<g>
</g>
<g>
</g>
<g>
</g>
<g>
</g>
<g>
</g>
<g>
</g>
<g>
</g>
</svg>
